<svg width="727" height="304" viewBox="0 0 727 304" fill="none" xmlns="http://www.w3.org/2000/svg">
<path d="M439.686 172.31C275.109 156.72 135.622 169.936 76.0951 183.927C68.8903 185.62 62.9051 187.123 58.2713 188.33C51.9962 189.964 43.2861 195.367 41.0036 201.321C40.6163 202.331 40.2506 203.357 39.9169 204.368C38.2596 209.387 40.6948 217.37 44.9611 220.476C46.2868 221.441 47.6921 222.379 49.068 223.211C53.1122 225.655 60.8099 225.162 65.4543 223.93C70.2206 222.667 76.9543 220.95 85.4902 218.944C163.692 200.564 380.42 150.567 605.105 216.876C608.568 217.898 645.929 221.466 646.95 218.003C647.972 214.541 612.268 205.359 608.806 204.338C551.704 187.486 494.545 177.507 439.686 172.31Z" fill="black"/>
<path d="M601.402 205.258C601.88 205.736 602.368 206.205 602.864 206.665C608.29 211.685 614.733 215.498 621.826 217.888C628.919 220.277 636.523 221.195 644.204 220.591C651.884 219.986 659.491 217.869 666.589 214.362C673.688 210.855 680.14 206.025 685.576 200.15C696.387 188.465 702.547 173.338 702.74 158.003C702.933 142.668 697.143 128.342 686.607 118.088C684.676 125.302 680.829 133.638 675.389 142.402C669.948 151.166 663.071 160.103 655.332 168.468C646.392 178.131 636.624 186.68 627.108 193.172C617.591 199.664 608.695 203.847 601.402 205.258Z" fill="black"/>
<path d="M634.788 151.564C628.962 157.623 623.62 164.025 619.099 170.366C614.578 176.707 610.978 182.849 608.525 188.402C606.863 192.166 605.749 195.613 605.216 198.642C606.808 198.338 608.522 197.858 610.341 197.205C616.174 195.112 622.979 191.288 630.162 186.066C637.344 180.844 644.688 174.382 651.552 167.244C657.541 161.015 663.017 154.426 667.614 147.915C672.211 141.405 675.824 135.123 678.21 129.49C679.654 126.081 680.634 122.947 681.123 120.167C676.462 121.055 670.806 123.449 664.568 127.173C654.956 132.913 644.442 141.524 634.788 151.564Z" fill="black"/>
<path d="M112.985 18.6391C107.389 16.0709 101.962 19.0317 98.1285 23.6616L36.9112 97.6018C30.2858 105.604 25.914 120.558 31.2927 129.136C35.7004 136.166 41.3387 143.472 45.3716 147.243L2.02122 235.285C-0.613214 240.635 1.3139 246.8 6.34212 249.107C11.3703 251.414 17.539 248.965 20.1734 243.614L67.9156 146.653L75.1394 131.982C75.1394 131.982 75.1408 131.979 75.1416 131.978L122.882 35.0207C125.516 29.6703 123.132 23.2952 117.536 20.7271L112.985 18.6391Z" fill="black"/>
<path d="M146.114 129.023C146.893 138.236 151.2 142.511 159.036 141.848C167.614 141.122 173.134 137.669 175.598 131.488C176.477 129.281 176.778 126.536 176.501 123.253C176.214 119.865 175.156 116.808 173.326 114.083C170.293 109.754 165.314 105.109 158.389 100.149C146.924 91.9469 140.779 82.9748 139.955 73.2326C139.122 63.3846 141.552 55.5536 147.246 49.7395C152.94 43.9253 159.758 40.6824 167.7 40.0107C175.642 39.3389 182.113 40.818 187.113 44.4478C192.112 48.0776 194.952 53.9164 195.633 61.9643C196.081 67.2589 194.67 72.0175 191.401 76.24C188.238 80.4536 183.785 83.2833 178.042 84.7289C180.877 86.7287 183.717 88.7815 186.561 90.8872C189.3 93.0019 191.844 95.3463 194.195 97.9203C199.383 103.774 202.344 111.042 203.078 119.725C203.589 125.761 202.62 131.336 200.173 136.449C197.832 141.553 194.528 145.991 190.261 149.765C186.092 153.424 181.277 156.391 175.817 158.666C170.357 160.941 165.191 162.284 160.32 162.696C149.942 163.574 141.693 161.872 135.572 157.59C128.444 152.754 124.45 145.253 123.59 135.087C123.026 128.416 124.65 121.773 128.463 115.158C132.277 108.543 136.619 105.03 141.49 104.618C145.302 104.295 147.306 105.299 147.503 107.629C147.79 111.017 147.547 114.451 146.775 117.929C145.994 121.301 145.773 124.999 146.114 129.023ZM173.113 81.3064C178.638 74.76 181.123 68.2041 180.568 61.6388C180.398 59.6268 179.195 58.0221 176.961 56.8246C174.524 55.751 172.035 55.3216 169.493 55.5366C163.775 56.0202 159.802 58.2227 157.574 62.1439C159.23 66.5898 161.41 70.2981 164.114 73.2689C166.924 76.2307 169.924 78.9099 173.113 81.3064ZM256.096 153.955C240.962 155.342 230.158 150.55 223.685 139.579C221.438 135.717 220.06 130.767 219.549 124.731C219.03 118.59 219.008 112.032 219.485 105.06C220.438 91.1147 223.441 78.0627 228.491 65.904C231.061 59.7143 234.072 54.3404 237.526 49.7822C245.103 39.7561 254.032 34.3616 264.313 33.5987C268.866 33.2135 272.521 34.1842 275.277 36.5107C278.131 38.7223 279.754 42.1577 280.149 46.817C280.543 51.4763 279.565 56.3049 277.214 61.303C274.855 66.1951 271.72 71.3662 267.808 76.8163C263.994 82.1515 259.725 87.7918 255.002 93.737C250.279 99.6823 245.702 106.095 241.271 112.976L241.809 119.329C242.31 125.259 243.948 129.493 246.722 132.031C249.497 134.57 252.578 135.696 255.967 135.409C265.074 134.639 272.741 129.458 278.968 119.866C281.514 115.917 283.528 113.881 285.01 113.755C286.493 113.63 287.386 115.367 287.691 118.968C287.996 122.568 287.303 126.359 285.613 130.342C284.021 134.209 281.771 137.866 278.862 141.311C275.945 144.651 272.507 147.501 268.547 149.862C264.588 152.224 260.437 153.588 256.096 153.955ZM257.458 67.9332C259.449 64.9919 260.986 62.3557 262.069 60.0244C263.151 57.6932 263.594 55.3628 263.397 53.0331C263.191 50.5976 262.241 49.4515 260.547 49.5948C256.84 49.9083 253.033 54.0697 249.124 62.0791C245.322 70.0796 242.833 80.3686 241.657 92.9461C244.791 87.1351 247.684 82.2512 250.336 78.2941C253.093 74.3281 255.468 70.8745 257.458 67.9332ZM303.252 149.967C292.663 150.862 286.531 141.409 284.856 121.607C283.942 110.806 284.438 100.899 286.341 91.8861C289.325 77.9826 293.411 70.8114 298.6 70.3725C301.67 70.1127 304.281 71.9716 306.43 75.9492C308.181 79.0006 309.134 82.0662 309.288 85.146C309.646 89.3817 309.007 96.9546 307.37 107.865C305.723 117.389 304.993 123.263 305.181 125.487C305.369 127.711 306.028 129.202 307.159 129.959C308.395 130.708 309.755 131.019 311.237 130.894C312.826 130.76 314.7 129.588 316.859 127.379C319.019 125.17 321.165 122.802 323.297 120.275C325.421 117.643 327.351 115.24 329.087 113.067C330.928 110.885 332.22 109.762 332.961 109.7C334.444 109.574 335.337 111.312 335.642 114.912C336.269 122.324 333.123 129.896 326.205 137.627C319.383 145.243 311.733 149.356 303.252 149.967ZM301.959 57.1304C298.741 53.1365 296.927 48.704 296.515 43.833C296.103 38.9619 296.504 34.8753 297.717 31.5731C299.028 28.1561 300.309 25.6481 301.56 24.0492C302.803 22.3444 304.324 21.4158 306.124 21.2636C309.089 21.0128 311.977 23.0081 314.789 27.2496C317.592 31.3852 319.119 34.9355 319.369 37.9005C319.835 43.4069 318.243 47.9142 314.594 51.4224C311.042 54.8157 306.83 56.7184 301.959 57.1304ZM393.441 104.104C395.347 103.943 396.439 105.504 396.717 108.786C396.985 111.963 396.429 115.476 395.048 119.326C393.773 123.166 391.59 126.977 388.497 130.758C385.5 134.424 381.511 137.695 376.528 140.569C371.546 143.444 365.507 145.181 358.412 145.781C351.423 146.372 345.107 144.827 339.463 141.145C333.81 137.357 330.652 131.545 329.989 123.709C329.317 115.767 329.931 108.516 331.829 101.957C333.824 95.2821 336.636 89.4451 340.266 84.4455C344.002 79.4369 348.357 75.4425 353.33 72.4622C358.295 69.376 363.107 67.6359 367.767 67.2418C375.92 66.5521 380.27 69.437 380.817 75.8964C381.13 79.6027 380.587 82.6349 379.186 84.9929C377.892 87.3421 376.451 88.5838 374.862 88.7182C372.744 88.8973 370.829 88.3128 369.115 86.9647C367.401 85.6165 365.591 85.023 363.685 85.1843C361.77 85.2396 359.993 86.2964 358.354 88.3547C356.821 90.4041 355.597 92.9606 354.683 96.0241C352.855 102.151 352.277 109.186 352.949 117.128C353.377 120.931 355.366 123.642 358.916 125.261C361.353 126.335 364.165 126.791 367.35 126.628C370.527 126.359 373.456 125.045 376.135 122.685C378.921 120.317 381.429 117.811 383.659 115.17C385.879 112.423 387.8 109.914 389.421 107.644C391.148 105.365 392.488 104.185 393.441 104.104ZM430.288 121.304C438.547 120.606 446.265 116.647 453.439 109.428C456.093 106.75 458.234 104.33 459.864 102.165C461.485 99.8952 462.772 98.7199 463.725 98.6392C465.208 98.5138 466.074 99.9336 466.325 102.899C466.576 105.864 466.064 109.266 464.789 113.107C463.505 116.842 461.158 120.613 457.747 124.421C449.366 133.769 437.233 139.114 421.349 140.458C408.748 141.523 399.786 137.695 394.462 128.974C392.605 125.931 391.426 121.445 390.924 115.515C390.423 109.585 391.068 103.345 392.86 96.7944C394.643 90.1379 397.244 84.3188 400.662 79.3371C404.186 74.3464 408.382 70.3654 413.25 67.3941C418.109 64.3168 423.397 62.5364 429.116 62.0527C434.94 61.5601 439.508 62.6135 442.821 65.2128C446.239 67.8032 448.141 71.3751 448.526 75.9285C448.911 80.4819 448.065 84.3396 445.986 87.5016C444.004 90.5488 441.298 93.2307 437.868 95.5472C434.429 97.7577 430.552 99.8453 426.239 101.81C422.023 103.66 417.878 105.717 413.803 107.981L414.139 111.952C414.567 115.755 416.384 118.321 419.589 119.65C422.795 120.978 426.361 121.53 430.288 121.304ZM423.799 76.7402C418.292 77.206 415.022 83.9349 413.988 96.927C416.086 95.2565 418.039 93.7581 419.847 92.4321C421.76 91.0971 423.414 89.8375 424.806 88.6531C427.786 86.0548 429.204 83.2687 429.059 80.2947C428.835 77.6474 427.082 76.4626 423.799 76.7402Z" fill="black"/>
<path d="M258.481 261.986C259.031 268.489 262.072 271.506 267.603 271.039C273.658 270.526 277.554 268.089 279.293 263.726C279.914 262.168 280.127 260.23 279.931 257.913C279.729 255.521 278.981 253.363 277.69 251.44C275.549 248.384 272.034 245.105 267.146 241.604C259.053 235.814 254.715 229.481 254.134 222.604C253.546 215.653 255.261 210.125 259.281 206.021C263.3 201.916 268.113 199.627 273.719 199.153C279.325 198.679 283.892 199.723 287.422 202.285C290.951 204.848 292.956 208.969 293.436 214.65C293.752 218.387 292.757 221.746 290.449 224.727C288.216 227.701 285.073 229.699 281.018 230.719C283.02 232.131 285.025 233.58 287.032 235.066C288.965 236.559 290.762 238.214 292.421 240.031C296.083 244.163 298.173 249.293 298.692 255.423C299.052 259.683 298.368 263.618 296.641 267.227C294.988 270.83 292.656 273.963 289.644 276.627C286.701 279.21 283.302 281.304 279.448 282.91C275.594 284.516 271.947 285.464 268.509 285.755C261.184 286.375 255.361 285.173 251.04 282.151C246.008 278.737 243.189 273.442 242.582 266.267C242.184 261.557 243.33 256.868 246.022 252.199C248.714 247.529 251.779 245.049 255.217 244.759C257.908 244.531 259.323 245.239 259.462 246.884C259.664 249.276 259.493 251.699 258.948 254.154C258.396 256.535 258.241 259.145 258.481 261.986ZM277.539 228.303C281.44 223.682 283.194 219.055 282.802 214.42C282.682 213 281.833 211.867 280.256 211.022C278.536 210.264 276.778 209.961 274.984 210.113C270.948 210.454 268.143 212.009 266.571 214.777C267.74 217.915 269.279 220.533 271.187 222.63C273.171 224.72 275.288 226.612 277.539 228.303ZM336.175 266.932C342.005 266.439 347.453 263.645 352.517 258.549C354.39 256.659 355.902 254.95 357.052 253.422C358.197 251.82 359.105 250.99 359.778 250.933C360.824 250.845 361.436 251.847 361.613 253.94C361.79 256.033 361.429 258.435 360.529 261.146C359.623 263.782 357.966 266.444 355.558 269.132C349.642 275.731 341.078 279.504 329.865 280.452C320.97 281.205 314.644 278.503 310.886 272.346C309.575 270.199 308.743 267.032 308.389 262.846C308.035 258.66 308.49 254.255 309.755 249.631C311.014 244.932 312.85 240.825 315.263 237.308C317.75 233.786 320.712 230.975 324.148 228.878C327.578 226.706 331.311 225.449 335.347 225.108C339.459 224.76 342.683 225.503 345.022 227.338C347.435 229.167 348.777 231.688 349.049 234.902C349.321 238.116 348.723 240.84 347.256 243.072C345.857 245.223 343.947 247.116 341.525 248.751C339.098 250.311 336.362 251.785 333.317 253.172C330.341 254.477 327.415 255.929 324.539 257.528L324.776 260.331C325.078 263.015 326.361 264.827 328.623 265.764C330.886 266.702 333.403 267.092 336.175 266.932ZM331.594 235.475C327.708 235.804 325.399 240.554 324.669 249.725C326.15 248.546 327.529 247.488 328.805 246.552C330.155 245.61 331.322 244.72 332.306 243.884C334.409 242.05 335.41 240.084 335.307 237.984C335.149 236.116 333.912 235.279 331.594 235.475ZM374.967 256.989L376.796 270.611C376.948 272.405 376.15 274.091 374.401 275.669C372.653 277.247 370.171 278.173 366.957 278.444C365.088 278.602 363.698 277.741 362.786 275.861C361.949 273.975 361.372 271.163 361.056 267.425C360.393 259.577 360.248 253.416 360.622 248.942C361.065 244.388 362.252 239.733 364.184 234.977C360.467 231.979 358.508 229.284 358.306 226.892C357.882 221.884 360.361 219.152 365.743 218.697C368.509 218.463 371.061 219.715 373.401 222.454C375.066 224.345 376.349 226.608 377.25 229.242C378.328 229.527 379.652 229.604 381.221 229.471C383.389 229.288 385.833 228.366 388.553 226.705L391.345 225.001C392.204 224.477 392.97 224.186 393.643 224.129C395.811 223.946 398.247 226.939 400.952 233.109C400.526 236.082 400.016 238.948 399.421 241.708C398.901 244.462 398.279 247.79 397.555 251.691C396.831 255.591 396.489 258.217 396.528 259.569C396.635 260.84 397.1 261.441 397.922 261.371C399.043 261.276 400.366 260.449 401.891 258.89C403.415 257.33 404.93 255.659 406.435 253.875C407.934 252.017 409.296 250.321 410.522 248.787C411.822 247.247 412.733 246.454 413.257 246.41C414.303 246.322 414.934 247.548 415.149 250.09C415.585 255.247 413.735 260.523 409.599 265.917C405.538 271.304 400.589 274.207 394.752 274.625C391.314 274.916 388.618 273.752 386.665 271.131C384.712 268.511 383.53 265.223 383.12 261.268C382.457 253.419 383.584 245.833 386.503 238.51C384.915 239.322 383.075 239.816 380.982 239.993C378.964 240.164 377.5 240.212 376.59 240.139C376.158 243.036 375.729 245.971 375.302 248.943C374.87 251.84 374.758 254.522 374.967 256.989ZM427.218 221.854C427.642 226.862 427.226 232.619 425.969 239.124C426.321 241.503 426.592 243.814 426.781 246.057C426.971 248.299 427.285 250.23 427.723 251.849C429.097 254.744 430.672 256.455 432.448 256.983C433.943 256.856 435.48 255.446 437.059 252.753C438.632 249.985 440.201 246.728 441.766 242.982C440.578 239.62 439.855 236.406 439.595 233.342C439.14 227.96 439.631 223.966 441.066 221.36C442.819 218.05 445.751 216.221 449.862 215.873C453.973 215.526 456.834 216.865 458.445 219.89C459.07 221.042 459.445 222.365 459.572 223.86C459.799 226.551 459.36 229.374 458.255 232.328C457.144 235.207 455.286 239.053 452.681 243.866C454.362 247.714 456.548 249.524 459.239 249.296C462.521 248.943 465.264 247.545 467.466 245.1C468.287 244.127 468.968 243.279 469.509 242.556C470.125 241.826 470.769 241.433 471.442 241.376C472.489 241.287 473.116 242.476 473.325 244.943C473.717 249.577 472.659 253.092 470.151 255.488C467.712 257.802 464.474 259.13 460.438 259.471C455.131 259.92 450.712 257.96 447.18 253.591C439.396 265.692 432.551 271.993 426.646 272.492C424.329 272.688 421.771 269.592 418.972 263.204C416.173 256.816 413.701 248.066 411.557 236.955C410.059 229.93 410.153 224.803 411.837 221.574C413.279 219.043 416.392 217.575 421.176 217.17C422.97 217.019 424.4 217.462 425.467 218.501C426.527 219.466 427.111 220.583 427.218 221.854ZM497.508 253.287C503.338 252.793 508.786 249.999 513.851 244.903C515.723 243.013 517.235 241.304 518.386 239.777C519.53 238.174 520.438 237.344 521.111 237.288C522.158 237.199 522.769 238.201 522.946 240.294C523.123 242.387 522.762 244.789 521.862 247.5C520.956 250.136 519.299 252.799 516.891 255.487C510.975 262.085 502.411 265.858 491.199 266.807C482.304 267.559 475.977 264.857 472.219 258.7C470.908 256.553 470.076 253.386 469.722 249.2C469.368 245.014 469.823 240.609 471.088 235.985C472.347 231.287 474.183 227.179 476.596 223.662C479.083 220.14 482.045 217.329 485.481 215.232C488.911 213.06 492.644 211.803 496.681 211.462C500.792 211.114 504.017 211.857 506.355 213.692C508.768 215.521 510.111 218.042 510.382 221.256C510.654 224.471 510.057 227.194 508.589 229.426C507.19 231.577 505.28 233.47 502.859 235.105C500.431 236.665 497.695 238.139 494.65 239.526C491.674 240.831 488.748 242.283 485.872 243.882L486.109 246.685C486.411 249.369 487.694 251.181 489.956 252.119C492.219 253.056 494.736 253.446 497.508 253.287ZM492.928 221.829C489.041 222.158 486.732 226.908 486.002 236.079C487.484 234.9 488.862 233.842 490.138 232.906C491.489 231.964 492.656 231.074 493.639 230.239C495.742 228.404 496.743 226.438 496.641 224.338C496.482 222.47 495.245 221.633 492.928 221.829Z" fill="black"/>
<path d="M558.911 156.987C558.231 148.941 561.808 142.988 569.642 139.13C565.261 136.59 562.815 132.289 562.302 126.226C561.914 121.637 563.231 117.987 566.255 115.277C569.274 112.511 573.05 110.936 577.582 110.553C582.115 110.169 586.154 111.026 589.698 113.123C593.243 115.22 595.192 118.365 595.547 122.558C595.628 123.521 595.554 124.327 595.323 124.974C595.088 125.564 594.772 125.877 594.375 125.91C593.412 125.992 592.242 125.32 590.866 123.896C589.486 122.415 587.876 121.267 586.038 120.452C584.257 119.633 582.488 119.297 580.731 119.446C579.032 119.589 577.585 120.368 576.392 121.781C575.199 123.195 574.718 125.262 574.948 127.981C575.173 130.644 576.474 132.874 578.852 134.67C579.301 134.575 579.751 134.509 580.205 134.47L581.65 134.348C583.576 134.185 585.307 134.41 586.843 135.022C588.435 135.629 589.291 136.641 589.411 138.057C589.635 140.036 587.845 141.471 584.04 142.364C583.029 142.563 582.014 142.706 580.994 142.792C580.031 142.874 578.739 142.783 577.119 142.521C573.887 144.792 572.465 148.222 572.854 152.811C573.041 155.706 574.404 157.987 576.942 159.656C579.48 161.324 582.392 162.02 585.679 161.742C588.965 161.464 591.728 160.06 593.968 157.531C596.203 154.945 597.096 151.331 596.646 146.69C596.527 145.274 596.135 143.68 595.472 141.91C594.865 140.135 594.516 138.71 594.425 137.633C594.329 136.5 594.72 135.725 595.598 135.308C596.533 134.887 598.275 134.568 600.824 134.353C603.431 134.132 605.688 133.827 607.595 133.438C609.559 133.043 611.011 132.664 611.95 132.299C612.941 131.873 613.597 131.532 613.918 131.276C614.295 131.016 614.711 130.867 615.164 130.829C616.411 130.723 617.101 131.464 617.235 133.05C617.421 134.575 616.764 136.257 615.265 138.096C613.818 139.873 612.187 140.839 610.374 140.992C608.618 141.141 606.445 141.096 603.857 140.859C604.365 142.813 604.695 144.697 604.849 146.51C605.439 154.164 603.527 160.232 599.112 164.714C595.217 168.582 590.096 170.784 583.75 171.321C573.211 172.212 565.812 169.757 561.555 163.953C560.008 161.859 559.127 159.536 558.911 156.987Z" fill="black"/>
</svg>
